<svg width="189" height="52" viewBox="0 0 189 52" fill="none" xmlns="http://www.w3.org/2000/svg">
<path d="M122.557 11.07C124.283 12.3752 125.51 13.614 126.24 14.7865C126.993 15.9369 127.369 17.1868 127.369 18.5362C127.369 20.0848 126.993 21.567 126.24 22.9828C125.488 24.3986 124.371 25.4605 122.889 26.1684C122.026 26.5666 121.141 26.8321 120.234 26.9648C119.349 27.0975 118.354 27.1639 117.248 27.1639C117.137 27.1639 117.027 26.9095 116.916 26.4007C116.805 25.8697 116.75 25.1286 116.75 24.1774C116.75 22.6731 116.883 21.6333 117.148 21.0582C117.392 20.483 117.646 20.1954 117.911 20.1954C119.283 20.1954 120.367 20.0848 121.163 19.8636C121.982 19.6423 122.391 19.3658 122.391 19.034C122.391 18.6136 121.971 17.95 121.13 17.043C120.29 16.136 118.829 14.9745 116.75 13.5587L117.911 7.5857L134.005 0.617188L135.001 5.92653L122.557 11.07Z" fill="#A72F3B"/>
<path d="M117.241 27.1639C114.808 27.1639 112.894 26.5113 111.5 25.2061C110.107 23.8787 109.365 21.8214 109.277 19.034L108.613 1.11494L114.254 0.617188C114.232 2.74092 114.199 5.55045 114.155 9.04577C114.133 12.519 114.111 14.6316 114.089 15.3838C114.089 17.0872 114.376 18.315 114.951 19.0672C115.549 19.8193 116.533 20.1954 117.905 20.1954L117.241 27.1639Z" fill="black"/>
<path d="M104.781 11.2344C105.223 14.3315 105.444 16.8756 105.444 18.8666C105.444 21.4327 104.902 23.4569 103.818 24.9391C102.757 26.4213 101.307 27.1624 99.4713 27.1624C98.0334 27.1624 96.8277 26.9412 95.8544 26.4987C94.881 26.0342 94.2062 25.4479 93.8302 24.74C93.432 25.4922 92.8125 26.0895 91.9719 26.5319C91.1313 26.9522 90.2021 27.1624 89.1845 27.1624C87.9899 27.1624 86.9944 26.9412 86.198 26.4987C85.4016 26.0342 84.8817 25.4037 84.6384 24.6073C84.1074 25.5143 83.3221 26.1669 82.2824 26.5651C81.2647 26.9633 79.86 27.1624 78.0681 27.1624C77.9575 27.1624 77.8468 26.908 77.7362 26.3992C77.6256 25.8682 77.5703 25.1272 77.5703 24.1759C77.5703 22.6716 77.703 21.6318 77.9685 21.0567C78.2119 20.4815 78.4663 20.1939 78.7317 20.1939C80.1918 20.1939 81.2758 19.9948 81.9837 19.5966C82.6916 19.1984 83.0456 18.5126 83.0456 17.5392V15.2164L87.3594 14.8845V17.2074C87.3594 19.1984 88.1337 20.1939 89.6822 20.1939C90.4344 20.1939 91.0096 19.9616 91.4078 19.497C91.806 19.0325 92.0051 18.3799 92.0051 17.5392V15.5482L96.3189 15.2164V17.2074C96.3189 18.2029 96.5955 18.955 97.1485 19.4639C97.7237 19.9505 98.5533 20.1939 99.6373 20.1939C100.19 20.1939 100.467 19.9727 100.467 19.5302C100.467 18.9993 100.378 18.1365 100.201 16.9419C100.024 15.7252 99.7811 14.3204 99.4713 12.7276L104.781 11.2344Z" fill="black"/>
<path d="M78.0657 27.1656C76.5614 27.1656 75.2894 26.9112 74.2496 26.4024C73.232 25.8714 72.5573 25.1525 72.2255 24.2455C71.7166 25.1525 70.8428 25.8714 69.604 26.4024C68.3651 26.9112 66.8166 27.1656 64.9583 27.1656H64.2946C64.184 27.1656 64.0734 26.9112 63.9628 26.4024C63.8522 25.8714 63.7969 25.1303 63.7969 24.1791C63.7969 22.6748 63.9296 21.635 64.1951 21.0599C64.4384 20.4847 64.6928 20.1971 64.9583 20.1971H65.622C67.5687 20.1971 68.9071 19.8874 69.6372 19.268C70.3893 18.6485 70.7654 17.7415 70.7654 16.5469V14.2241L75.0792 13.8922V16.381C75.0792 17.7526 75.3668 18.737 75.942 19.3343C76.5393 19.9095 77.4684 20.1971 78.7294 20.1971L78.0657 27.1656ZM70.4336 6.75781H70.7654H76.2406V11.2376H70.7654H70.4336H64.9583V6.75781H70.4336Z" fill="black"/>
<path d="M62.8752 27.1661C62.2116 29.8871 60.6409 31.9335 58.1632 33.305C56.6589 34.1236 54.8117 34.7872 52.6216 35.296C50.4315 35.827 47.7989 36.2141 44.7239 36.4575C44.4363 35.0195 44.0492 32.9732 43.5625 30.3185C48.8276 29.9646 52.6437 29.4668 55.0108 28.8253C57.4 28.1837 58.7162 27.4095 58.9596 26.5024C57.3225 26.7237 55.6191 26.8343 53.8494 26.8343C52.1238 26.8343 50.8075 26.3697 49.9005 25.4406C48.9935 24.5114 48.54 23.2062 48.54 21.5249C48.54 19.733 48.8497 18.0296 49.4691 16.4147C50.1107 14.7776 50.9845 13.4503 52.0906 12.4327C53.1967 11.4151 54.4467 10.9062 55.8404 10.9062C57.7429 10.9062 59.3467 11.7137 60.6519 13.3286C61.9572 14.9214 62.7867 17.2111 63.1407 20.1976H64.9658L64.3021 27.1661H62.8752ZM52.6879 19.0362C52.6879 19.4786 52.8428 19.8105 53.1525 20.0317C53.4843 20.2529 54.0485 20.3635 54.8449 20.3635L58.4287 20.2971C57.8314 17.9079 56.6921 16.7133 55.0108 16.7133C54.3913 16.7133 53.8494 16.9677 53.3848 17.4766C52.9202 17.9854 52.6879 18.5052 52.6879 19.0362Z" fill="black"/>
<path d="M39.7402 10.4062C40.979 10.4062 41.9745 10.7491 42.7267 11.4349C43.4788 12.0986 44.0319 13.1383 44.3858 14.5542C44.5628 15.24 44.7177 16.0917 44.8504 17.1093C44.9831 18.1048 45.0495 18.9676 45.0495 19.6976C45.0495 21.0471 44.7951 22.3191 44.2863 23.5137C43.7775 24.7083 43.1027 25.6706 42.2621 26.4006C41.4436 27.1307 40.6029 27.4957 39.7402 27.4957C38.3022 27.4957 36.8643 27.1639 35.4263 26.5002C33.9884 25.8365 32.9929 25.0954 32.4398 24.2769C31.6434 25.3388 30.7917 26.0909 29.8847 26.5334C28.9777 26.9537 28.0043 27.1639 26.9645 27.1639C26.8539 27.1639 26.7433 26.9095 26.6327 26.4006C26.5221 25.8697 26.4668 25.1286 26.4668 24.1774C26.4668 22.673 26.5995 21.6333 26.865 21.0581C27.1083 20.4829 27.3627 20.1953 27.6282 20.1953C28.314 20.1953 28.8671 20.1179 29.2874 19.9631C29.7298 19.7861 30.128 19.4874 30.482 19.0671C30.8581 18.6247 31.2895 17.9499 31.7761 17.0429C32.7495 15.2731 33.6123 13.9237 34.3644 12.9946C35.1166 12.0433 35.9019 11.3796 36.7205 11.0036C37.5611 10.6054 38.5677 10.4062 39.7402 10.4062ZM35.3268 18.6357C35.5701 19.0561 36.2338 19.4764 37.3178 19.8967C38.4018 20.317 39.3751 20.5272 40.2379 20.5272C40.5476 20.5272 40.7025 20.3613 40.7025 20.0294C40.7025 19.6534 40.6472 19.1888 40.5366 18.6357C40.4481 18.0606 40.3485 17.5849 40.2379 17.2088C39.9946 16.4346 39.5521 16.0474 38.9106 16.0474C38.3354 16.0474 37.8598 16.1138 37.4837 16.2465C37.1076 16.3793 36.7536 16.6337 36.4218 17.0097C36.1121 17.3637 35.7471 17.9057 35.3268 18.6357Z" fill="black"/>
<path d="M25.6411 27.1604C25.6411 28.3107 25.3645 29.4058 24.8115 30.4455C24.2805 31.4853 23.5063 32.4365 22.4886 33.2993C21.3162 34.3169 19.6238 35.1465 17.4116 35.7881C15.1993 36.4517 12.9097 36.7836 10.5426 36.7836C7.04729 36.7836 4.42581 36.0646 2.67815 34.6267C0.952612 33.2108 0.0898438 31.0539 0.0898438 28.1559C0.0898438 25.5012 0.753512 22.017 2.08085 17.7031L6.22877 18.8645C5.80845 20.4573 5.5098 21.7515 5.33282 22.747C5.15584 23.7204 5.06735 24.5831 5.06735 25.3353C5.06735 26.7954 5.58722 27.9015 6.62697 28.6536C7.68884 29.4279 9.38119 29.8151 11.704 29.8151C13.4074 29.8151 14.956 29.6823 16.3497 29.4169C17.7434 29.1735 18.8385 28.8638 19.6349 28.4877C20.4313 28.1116 20.8295 27.7798 20.8295 27.4922C20.8295 27.3152 20.6193 27.1604 20.199 27.0277C19.7787 26.8728 19.0044 26.7069 17.8761 26.5299C16.7479 26.3529 15.0777 26.1206 12.8654 25.8331L14.0269 20.026C16.4603 20.1366 20.2764 20.1919 25.4751 20.1919H27.6321L26.9684 27.1604H25.6411Z" fill="black"/>
<path d="M123.394 35.8974C124.135 35.8974 124.704 36.2806 125.1 37.047C125.504 37.8133 125.706 38.8281 125.706 40.0913C125.706 40.6387 125.592 41.1524 125.365 41.6325C125.138 42.1041 124.818 42.4283 124.405 42.6051C124.093 42.7399 123.66 42.8367 123.104 42.8957C122.556 42.9546 121.959 42.9841 121.31 42.9841H120.388C120.354 42.9841 120.321 42.9336 120.287 42.8325C120.253 42.7315 120.236 42.5925 120.236 42.4157C120.236 42.1293 120.27 41.9104 120.337 41.7588C120.396 41.5988 120.464 41.5188 120.539 41.5188H121.613C123.028 41.5188 123.971 41.4177 124.443 41.2156C124.611 41.1398 124.695 40.9503 124.695 40.6471C124.695 40.4198 124.691 40.2555 124.683 40.1545C124.077 40.3061 123.487 40.3819 122.914 40.3819C122.359 40.3819 121.937 40.2513 121.651 39.9903C121.373 39.7208 121.234 39.3587 121.234 38.9039C121.234 38.3986 121.327 37.9144 121.512 37.4512C121.697 36.988 121.954 36.6133 122.283 36.3269C122.611 36.0406 122.982 35.8974 123.394 35.8974ZM122.232 38.3986C122.232 38.6092 122.308 38.7776 122.46 38.9039C122.62 39.0218 122.843 39.0808 123.129 39.0808C123.626 39.0808 124.102 39.0386 124.557 38.9544C124.447 38.3649 124.274 37.9186 124.039 37.6154C123.803 37.3122 123.521 37.1607 123.192 37.1607C122.923 37.1607 122.695 37.2828 122.51 37.527C122.325 37.7712 122.232 38.0618 122.232 38.3986ZM122.523 34.5837V33.1562H124.064V34.5837H122.523Z" fill="black"/>
<path d="M120.387 42.9865C119.798 42.9865 119.377 42.8854 119.124 42.6833C119.099 43.3402 118.96 43.9002 118.707 44.3634C118.463 44.835 118.05 45.2434 117.469 45.5887C116.897 45.9424 116.109 46.2371 115.107 46.4729L114.627 45.1845C115.536 44.9487 116.235 44.7086 116.724 44.4644C117.221 44.2202 117.558 43.976 117.734 43.7318C117.92 43.4875 118.012 43.218 118.012 42.9233C118.012 42.418 117.962 41.8453 117.861 41.2053C117.768 40.5569 117.642 39.9252 117.482 39.3105L118.707 38.9062C118.833 39.6894 118.956 40.2579 119.073 40.6116C119.2 40.9569 119.368 41.1969 119.579 41.3316C119.789 41.458 120.109 41.5211 120.539 41.5211L120.387 42.9865Z" fill="black"/>
<path d="M112.608 38.2109C113.113 38.2109 113.543 38.3962 113.896 38.7668C114.259 39.1373 114.528 39.6173 114.705 40.2068C114.89 40.7879 114.983 41.4027 114.983 42.0511C114.983 42.8427 114.852 43.4912 114.591 43.9965C114.33 44.5018 113.901 44.9271 113.303 45.2723C112.317 45.845 110.726 46.2282 108.528 46.4219C108.444 46.0934 108.343 45.6303 108.225 45.0323C109.698 44.8976 110.852 44.7334 111.686 44.5397C112.52 44.346 113.105 44.1102 113.442 43.8323C113.787 43.5628 113.96 43.2343 113.96 42.847V42.7459C113.421 42.9143 112.797 42.9985 112.09 42.9985C111.534 42.9985 111.113 42.8638 110.827 42.5943C110.541 42.3164 110.397 41.9374 110.397 41.4574C110.397 40.8932 110.49 40.3626 110.675 39.8658C110.869 39.3689 111.134 38.9689 111.471 38.6657C111.808 38.3625 112.187 38.2109 112.608 38.2109ZM111.408 40.889C111.408 41.0995 111.484 41.2679 111.635 41.3943C111.795 41.5206 112.027 41.5837 112.33 41.5837C112.827 41.5837 113.332 41.5374 113.846 41.4448C113.728 40.8553 113.547 40.3963 113.303 40.0679C113.067 39.7394 112.781 39.5752 112.444 39.5752C112.149 39.5752 111.901 39.71 111.698 39.9794C111.505 40.2405 111.408 40.5437 111.408 40.889Z" fill="black"/>
<path d="M108.315 38.2523C108.382 38.6481 108.441 39.1155 108.492 39.6544C108.542 40.185 108.567 40.6398 108.567 41.0187C108.567 41.6166 108.42 42.0967 108.125 42.4588C107.839 42.8125 107.481 42.9893 107.052 42.9893C106.58 42.9893 106.167 42.9051 105.814 42.7367C105.468 42.5683 105.224 42.3367 105.081 42.0419C104.896 42.3451 104.656 42.5809 104.361 42.7493C104.066 42.9093 103.738 42.9893 103.376 42.9893C102.971 42.9893 102.618 42.9093 102.314 42.7493C102.011 42.5809 101.809 42.3409 101.708 42.0293C101.506 42.3493 101.199 42.5893 100.786 42.7493C100.373 42.9093 99.8259 42.9893 99.1438 42.9893C99.1101 42.9893 99.0764 42.9388 99.0427 42.8378C99.009 42.7367 98.9922 42.5977 98.9922 42.4209C98.9922 42.1346 99.0259 41.9156 99.0932 41.764C99.1522 41.604 99.2196 41.524 99.2954 41.524C100.003 41.524 100.525 41.4187 100.862 41.2082C101.199 40.9892 101.367 40.644 101.367 40.1724V39.4397L102.441 39.3513V40.2861C102.441 40.6734 102.529 40.9766 102.706 41.1956C102.891 41.4145 103.161 41.524 103.515 41.524C103.835 41.524 104.1 41.4103 104.31 41.1829C104.529 40.9556 104.639 40.6819 104.639 40.3618V39.566L105.713 39.4776V40.2861C105.713 40.665 105.835 40.9682 106.079 41.1956C106.331 41.4145 106.677 41.524 107.115 41.524C107.207 41.524 107.283 41.4987 107.342 41.4482C107.401 41.3893 107.431 41.3135 107.431 41.2208C107.431 40.9935 107.393 40.6229 107.317 40.1092C107.249 39.5871 107.169 39.086 107.077 38.606L108.315 38.2523ZM104.146 35.8143V34.6016H105.561V35.8143H104.146ZM104.79 36.3953H104.917H106.572V37.5828H104.917H104.79H103.136V36.3953H104.79Z" fill="black"/>
<path d="M92.8673 34.6617L92.741 33.8154L96.6443 32.0469L96.8338 32.8427L92.8673 34.6617ZM99.1455 42.9864C98.6823 42.9864 98.2612 42.9232 97.8823 42.7969C97.5117 42.6706 97.1159 42.4474 96.6948 42.1274C96.2738 41.8074 95.76 41.34 95.1537 40.7252C95.1032 41.1126 94.9811 41.4621 94.7874 41.7737C94.5937 42.0768 94.3621 42.3084 94.0926 42.4684C93.8147 42.6285 93.4652 42.7548 93.0441 42.8474C92.623 42.94 92.1936 42.9864 91.7556 42.9864C91.7219 42.9864 91.6883 42.94 91.6546 42.8474C91.6209 42.7464 91.6041 42.599 91.6041 42.4053C91.6041 42.1274 91.6377 41.9126 91.7051 41.761C91.7641 41.601 91.8314 41.521 91.9072 41.521C92.5641 41.521 93.0989 41.4452 93.5115 41.2936C93.9242 41.1421 94.1305 40.9442 94.1305 40.6999C94.1305 40.5062 94.0757 40.3041 93.9663 40.0936C93.8568 39.8831 93.6126 39.5925 93.2336 39.222C92.8546 38.843 92.282 38.3546 91.5156 37.7566L91.8188 36.1523L98.2739 33.1585L98.5518 34.3333L92.6399 37.0492C93.5073 37.6977 94.3916 38.4219 95.2927 39.222C96.0001 39.8536 96.5685 40.3294 96.998 40.6494C97.4275 40.9694 97.8149 41.1968 98.1602 41.3315C98.5054 41.4579 98.8844 41.521 99.2971 41.521L99.1455 42.9864Z" fill="black"/>
<path d="M91.7452 42.9841C90.9115 42.9841 90.2841 42.7694 89.863 42.3399C89.4504 41.9019 89.2314 41.2282 89.2061 40.3187L89.0293 33.2573L90.3304 33.1562L90.3178 39.6239C90.3094 40.2471 90.4315 40.7187 90.6841 41.0387C90.9452 41.3588 91.3536 41.5188 91.9094 41.5188L91.7452 42.9841Z" fill="black"/>
<path d="M84.0915 36.6953C84.9 37.369 85.5274 37.9375 85.9737 38.4007C86.42 38.8638 86.7401 39.2807 86.9337 39.6512C87.1274 40.0218 87.2243 40.3923 87.2243 40.7629C87.2243 41.2261 87.1022 41.6303 86.858 41.9756C86.6137 42.3209 86.2853 42.5861 85.8726 42.7714C85.4937 42.9567 85.0347 43.0493 84.4957 43.0493C83.881 43.0493 83.422 42.9019 83.1188 42.6072C82.8156 42.304 82.6641 41.9082 82.6641 41.4198C82.6641 40.6113 83.102 39.6091 83.9778 38.4133L83.3588 37.8827L84.0915 36.6953ZM83.7631 40.7881C83.7631 40.9987 83.8431 41.1755 84.0031 41.3187C84.1631 41.4619 84.4031 41.5334 84.7231 41.5334C85.0937 41.5334 85.4263 41.4829 85.7211 41.3819C86.0242 41.2808 86.1758 41.1629 86.1758 41.0282C86.1758 40.8176 86.0705 40.5734 85.86 40.2955C85.6579 40.0092 85.2663 39.5965 84.6852 39.0575C84.382 39.4449 84.1505 39.7902 83.9904 40.0934C83.8389 40.3881 83.7631 40.6197 83.7631 40.7881Z" fill="black"/>
<path d="M79.7693 43.5599L79.5293 33.7573L80.8304 33.6562L80.7925 43.4715L79.7693 43.5599Z" fill="black"/>
<path d="M77.3542 38.6094C77.43 39.0136 77.5058 39.4852 77.5816 40.0242C77.6658 40.5632 77.7079 40.9632 77.7079 41.2242C77.7079 41.6032 77.6111 41.978 77.4174 42.3485C77.2237 42.7106 76.9626 42.9717 76.6342 43.1317C76.1626 43.3675 75.4131 43.4854 74.3857 43.4854C74.352 43.4854 74.3183 43.4349 74.2846 43.3338C74.2509 43.2328 74.2341 43.0938 74.2341 42.917C74.2341 42.6306 74.2678 42.4117 74.3351 42.2601C74.3941 42.1001 74.4615 42.0201 74.5373 42.0201C75.8931 42.0201 76.571 41.8727 76.571 41.5779C76.571 41.3506 76.5289 40.9716 76.4447 40.441C76.3605 39.9021 76.251 39.4094 76.1163 38.9631L77.3542 38.6094ZM75.2447 44.8876H75.371H77.0258V46.075H75.371H75.2447H73.5898V44.8876H75.2447Z" fill="black"/>
<path d="M74.3788 43.4903C73.2924 43.4903 72.6145 43.1366 72.345 42.4292C72.1597 42.7744 71.8439 43.0397 71.3976 43.225C70.9513 43.4018 70.3786 43.4903 69.6796 43.4903H69.427C69.3933 43.4903 69.3596 43.4397 69.3259 43.3387C69.2922 43.2376 69.2754 43.0987 69.2754 42.9218C69.2754 42.6355 69.3091 42.4165 69.3764 42.2649C69.4354 42.1049 69.5028 42.0249 69.5786 42.0249H69.8312C70.5807 42.0249 71.1239 41.907 71.4608 41.6712C71.806 41.4354 71.9787 41.0733 71.9787 40.5849V39.5617L73.0524 39.4732V40.5722C73.0524 41.0523 73.1661 41.4144 73.3935 41.6586C73.6293 41.9028 74.0125 42.0249 74.543 42.0249L74.3788 43.4903ZM71.0818 38.0837V36.6562H72.6229V38.0837H71.0818Z" fill="black"/>
<path d="M69.4198 43.4846C68.3334 43.4846 67.6555 43.1309 67.386 42.4235C67.2008 42.7688 66.885 43.0341 66.4386 43.2194C65.9923 43.3962 65.4196 43.4846 64.7206 43.4846H64.468C64.4343 43.4846 64.4006 43.4341 64.3669 43.333C64.3332 43.232 64.3164 43.093 64.3164 42.9162C64.3164 42.6299 64.3501 42.4109 64.4175 42.2593C64.4764 42.0993 64.5438 42.0193 64.6196 42.0193H64.8722C65.6217 42.0193 66.1649 41.9014 66.5018 41.6656C66.8471 41.4298 67.0197 41.0677 67.0197 40.5792V39.556L68.0934 39.4676V40.5666C68.0934 41.0466 68.2071 41.4087 68.4345 41.653C68.6703 41.8972 69.0535 42.0193 69.584 42.0193L69.4198 43.4846ZM66.7039 36.8906H66.8302H68.485V38.0781H66.8302H66.7039H65.0491V36.8906H66.7039Z" fill="black"/>
<path d="M64.4673 43.4865C63.8441 43.4865 63.4062 43.3728 63.1536 43.1454C63.0525 43.7096 62.8335 44.2191 62.4967 44.6739C62.1598 45.1286 61.6966 45.5118 61.1071 45.8234C60.206 46.295 59.0186 46.6613 57.5449 46.9224L57.3048 46.1518L57.1406 45.6339C59.0523 45.2886 60.3534 44.8844 61.044 44.4212C61.743 43.9581 62.0925 43.457 62.0925 42.918C62.0925 42.6401 62.0419 42.198 61.9409 41.5916C61.8398 40.9769 61.7135 40.3831 61.5619 39.8105L62.7872 39.4062C62.9135 40.1894 63.0357 40.7579 63.1536 41.1116C63.2799 41.4569 63.4483 41.6969 63.6588 41.8316C63.8694 41.958 64.1894 42.0211 64.6189 42.0211L64.4673 43.4865Z" fill="black"/>
<path d="M58.8858 38.613C58.9616 39.0173 59.0374 39.4889 59.1132 40.0278C59.1974 40.5668 59.2395 40.9668 59.2395 41.2279C59.2395 41.6069 59.1426 41.9816 58.9489 42.3522C58.7552 42.7143 58.4942 42.9754 58.1657 43.1354C57.6941 43.3712 56.9446 43.4891 55.9172 43.4891C55.8835 43.4891 55.8498 43.4385 55.8162 43.3375C55.7825 43.2364 55.7656 43.0975 55.7656 42.9206C55.7656 42.6343 55.7993 42.4153 55.8667 42.2637C55.9256 42.1037 55.993 42.0237 56.0688 42.0237C57.4247 42.0237 58.1026 41.8764 58.1026 41.5816C58.1026 41.3542 58.0605 40.9753 57.9763 40.4447C57.892 39.9057 57.7826 39.4131 57.6478 38.9667L58.8858 38.613ZM57.231 37.4509V36.0234H58.7721V37.4509H57.231Z" fill="black"/>
<path d="M55.912 43.4846C54.8256 43.4846 54.1477 43.1309 53.8782 42.4235C53.6929 42.7688 53.3771 43.0341 52.9308 43.2194C52.4845 43.3962 51.9118 43.4846 51.2128 43.4846H50.9602C50.9265 43.4846 50.8928 43.4341 50.8591 43.333C50.8254 43.232 50.8086 43.093 50.8086 42.9162C50.8086 42.6299 50.8423 42.4109 50.9097 42.2593C50.9686 42.0993 51.036 42.0193 51.1118 42.0193H51.3644C52.1139 42.0193 52.6571 41.9014 52.994 41.6656C53.3392 41.4298 53.5119 41.0677 53.5119 40.5792V39.556L54.5856 39.4676V40.5666C54.5856 41.0466 54.6993 41.4087 54.9267 41.653C55.1625 41.8972 55.5457 42.0193 56.0762 42.0193L55.912 43.4846ZM53.1961 36.8906H53.3224H54.9772V38.0781H53.3224H53.1961H51.5413V36.8906H53.1961Z" fill="black"/>
<path d="M50.3225 43.4875C50.3983 43.6139 50.4362 43.757 50.4362 43.917C50.4362 44.2539 50.3562 44.5823 50.1962 44.9023C50.0446 45.2224 49.8046 45.5129 49.4762 45.774C48.9625 46.1782 48.2593 46.5066 47.3666 46.7593C46.4823 47.0203 45.6065 47.1509 44.7391 47.1509C43.5517 47.1509 42.6632 46.9067 42.0737 46.4182C41.4842 45.9382 41.1895 45.2434 41.1895 44.3339C41.1895 43.4581 41.4084 42.2791 41.8463 40.7969L42.8443 41.0748C42.5243 42.2538 42.3642 43.1591 42.3642 43.7907C42.3642 44.3802 42.5874 44.8434 43.0338 45.1803C43.4801 45.5171 44.1328 45.6855 44.9917 45.6855C45.716 45.6855 46.4108 45.6013 47.0761 45.4329C47.7414 45.2729 48.2803 45.0792 48.693 44.8518C49.1056 44.6244 49.312 44.4307 49.312 44.2707C49.312 44.136 49.2235 44.0181 49.0467 43.917C48.8783 43.8244 48.5751 43.7275 48.1372 43.6265C47.7077 43.5254 47.0761 43.4033 46.2423 43.2602L46.5329 41.959C47.4003 42.0011 48.554 42.0222 49.9941 42.0222H51.1057L50.9415 43.4875H50.3225Z" fill="black"/>
<g clip-path="url(#clip0_9351_8086)">
<rect x="139" y="1" width="50" height="50" rx="25" fill="black"/>
<path d="M162.113 18.8008C166.461 22.0273 169.554 25.0898 171.393 27.9883C173.288 30.832 174.236 33.9219 174.236 37.2578C174.236 41.0859 173.288 44.75 171.393 48.25C169.498 51.75 166.683 54.375 162.949 56.125C160.775 57.1094 158.546 57.7656 156.261 58.0937C154.031 58.4219 151.523 58.5859 148.736 58.5859C148.458 58.5859 148.179 57.957 147.9 56.6992C147.622 55.3867 147.482 53.5547 147.482 51.2031C147.482 47.4844 147.817 44.9141 148.486 43.4922C149.099 42.0703 149.74 41.3594 150.409 41.3594C153.864 41.3594 156.595 41.0859 158.602 40.5391C160.664 39.9922 161.695 39.3086 161.695 38.4883C161.695 37.4492 160.636 35.8086 158.518 33.5664C156.4 31.3242 152.722 28.4531 147.482 24.9531L150.409 10.1875L190.956 -7.03906L193.465 6.08593L162.113 18.8008Z" fill="#242424"/>
<path d="M163.209 22.3164C165.362 23.9187 166.893 25.4395 167.804 26.8789C168.742 28.2911 169.212 29.8255 169.212 31.4821C169.212 33.3832 168.742 35.2028 167.804 36.9408C166.866 38.6789 165.472 39.9825 163.623 40.8516C162.547 41.3404 161.443 41.6663 160.311 41.8292C159.208 41.9922 157.966 42.0737 156.586 42.0737C156.448 42.0737 156.31 41.7613 156.172 41.1367C156.034 40.4849 155.965 39.5751 155.965 38.4074C155.965 36.5606 156.13 35.2842 156.462 34.5781C156.765 33.872 157.083 33.519 157.414 33.519C159.125 33.519 160.477 33.3832 161.471 33.1116C162.492 32.84 163.002 32.5006 163.002 32.0932C163.002 31.5772 162.478 30.7625 161.429 29.649C160.38 28.5355 158.559 27.1097 155.965 25.3717L157.414 18.0391L177.491 9.48438L178.733 16.0022L163.209 22.3164Z" fill="#A72F3B"/>
</g>
<defs>
<clipPath id="clip0_9351_8086">
<rect x="139" y="1" width="50" height="50" rx="25" fill="white"/>
</clipPath>
</defs>
</svg>
