<svg width="16" height="16" viewBox="0 0 16 16" fill="none" xmlns="http://www.w3.org/2000/svg">
<path d="M8.00065 15.1693C4.04732 15.1693 0.833984 11.9559 0.833984 8.0026C0.833984 4.04927 4.04732 0.835938 8.00065 0.835938C11.954 0.835938 15.1673 4.04927 15.1673 8.0026C15.1673 11.9559 11.954 15.1693 8.00065 15.1693ZM8.00065 1.83594C4.60065 1.83594 1.83398 4.6026 1.83398 8.0026C1.83398 11.4026 4.60065 14.1693 8.00065 14.1693C11.4007 14.1693 14.1673 11.4026 14.1673 8.0026C14.1673 4.6026 11.4007 1.83594 8.00065 1.83594Z" fill="#434343"/>
<path d="M10.6673 8.5H5.33398C5.06065 8.5 4.83398 8.27333 4.83398 8C4.83398 7.72667 5.06065 7.5 5.33398 7.5H10.6673C10.9407 7.5 11.1673 7.72667 11.1673 8C11.1673 8.27333 10.9407 8.5 10.6673 8.5Z" fill="#434343"/>
<path d="M8 11.1693C7.72667 11.1693 7.5 10.9426 7.5 10.6693V5.33594C7.5 5.0626 7.72667 4.83594 8 4.83594C8.27333 4.83594 8.5 5.0626 8.5 5.33594V10.6693C8.5 10.9426 8.27333 11.1693 8 11.1693Z" fill="#434343"/>
</svg>
