<svg width="40" height="40" viewBox="0 0 40 40" fill="none" xmlns="http://www.w3.org/2000/svg">
<mask id="mask0_3981_15132" style="mask-type:luminance" maskUnits="userSpaceOnUse" x="0" y="0" width="40" height="40">
<path d="M0 20C0 31.0457 8.9543 40 20 40C31.0457 40 40 31.0457 40 20C40 8.9543 31.0457 0 20 0C8.9543 0 0 8.9543 0 20Z" fill="white"/>
</mask>
<g mask="url(#mask0_3981_15132)">
<path d="M0 20C0 31.0457 8.9543 40 20 40C31.0457 40 40 31.0457 40 20C40 8.9543 31.0457 0 20 0C8.9543 0 0 8.9543 0 20Z" fill="#DCACB1" fill-opacity="0.5"/>
<path d="M-4 44L44 44L44 -4L-4 -4L-4 44Z" fill="white"/>
<path d="M20 -1.5C31.86 -1.5 41.5 8.14 41.5 20C41.5 31.86 31.86 41.5 20 41.5C8.14 41.5 -1.5 31.86 -1.5 20C-1.5 8.14 8.14 -1.5 20 -1.5ZM20 38.5C30.2 38.5 38.5 30.2 38.5 20C38.5 9.8 30.2 1.5 20 1.5C9.8 1.5 1.5 9.8 1.5 20C1.5 30.2 9.8 38.5 20 38.5Z" fill="#86262F"/>
<path d="M13 18.5H25C25.82 18.5 26.5 19.18 26.5 20C26.5 20.82 25.82 21.5 25 21.5H13C12.18 21.5 11.5 20.82 11.5 20C11.5 19.18 12.18 18.5 13 18.5Z" fill="#86262F"/>
<path d="M21.0001 12.4972C21.3801 12.4972 21.7601 12.6372 22.0601 12.9372L28.0601 18.9372C28.6401 19.5172 28.6401 20.4772 28.0601 21.0572L22.0601 27.0572C21.4801 27.6372 20.5201 27.6372 19.9401 27.0572C19.3601 26.4772 19.3601 25.5172 19.9401 24.9372L24.8801 19.9972L19.9401 15.0572C19.3601 14.4772 19.3601 13.5172 19.9401 12.9372C20.2401 12.6372 20.6201 12.4972 21.0001 12.4972Z" fill="#86262F"/>
</g>
</svg>
